<?xml version="1.0" encoding="UTF-8" standalone="no"?>
<!DOCTYPE svg PUBLIC "-//W3C//DTD SVG 1.1//EN" "http://www.w3.org/Graphics/SVG/1.1/DTD/svg11.dtd">
<svg width="100%" height="100%" viewBox="0 0 1115 505" version="1.1" xmlns="http://www.w3.org/2000/svg" xmlns:xlink="http://www.w3.org/1999/xlink" xml:space="preserve" xmlns:serif="http://www.serif.com/" style="fill-rule:evenodd;clip-rule:evenodd;stroke-miterlimit:10;">
    <g transform="matrix(1,0,0,1,-1209.82,0)">
        <g id="Artboard1" transform="matrix(0.837373,0,0,0.565028,1395.01,60.9741)">
            <rect x="-221.164" y="-107.913" width="1331.24" height="892.441" style="fill:none;"/>
            <clipPath id="_clip1">
                <rect x="-221.164" y="-107.913" width="1331.24" height="892.441"/>
            </clipPath>
            <g clip-path="url(#_clip1)">
                <g>
                    <g transform="matrix(3.51854,5.2143,3.51841,-5.21449,281.629,263.955)">
                        <path d="M-5.454,-13.167C4.831,-2.882 21.505,-2.884 31.788,-13.167" style="fill:none;fill-rule:nonzero;stroke:white;stroke-width:14.17px;"/>
                    </g>
                    <g transform="matrix(3.51854,-5.2143,-3.51841,-5.21449,150.595,538.582)">
                        <path d="M-5.454,13.167C4.829,23.449 21.504,23.45 31.788,13.167" style="fill:none;fill-rule:nonzero;stroke:white;stroke-width:14.17px;"/>
                    </g>
                    <g transform="matrix(0,7.37427,4.97588,0,422.629,610.222)">
                        <path d="M-15.169,-15.169L15.169,-15.169" style="fill:none;fill-rule:nonzero;stroke:white;stroke-width:14.17px;"/>
                    </g>
                    <g transform="matrix(0,7.37427,4.97588,0,160.56,610.222)">
                        <path d="M-15.169,-15.169L15.169,-15.169" style="fill:none;fill-rule:nonzero;stroke:white;stroke-width:14.17px;"/>
                    </g>
                    <g transform="matrix(3.51854,5.2143,3.51841,-5.21449,19.5598,263.955)">
                        <path d="M-5.454,-13.167C4.831,-2.882 21.505,-2.884 31.788,-13.167" style="fill:none;fill-rule:nonzero;stroke:white;stroke-width:14.17px;"/>
                    </g>
                    <g transform="matrix(3.51854,-5.2143,-3.51841,-5.21449,-111.474,538.582)">
                        <path d="M-5.454,13.167C4.829,23.449 21.504,23.45 31.788,13.167" style="fill:none;fill-rule:nonzero;stroke:white;stroke-width:14.17px;"/>
                    </g>
                    <g transform="matrix(0,7.37427,4.97588,0,160.56,610.222)">
                        <path d="M-15.169,-15.169L15.169,-15.169" style="fill:none;fill-rule:nonzero;stroke:white;stroke-width:14.17px;"/>
                    </g>
                    <g transform="matrix(0,7.37427,4.97588,0,-101.509,610.222)">
                        <path d="M-15.169,-15.169L15.169,-15.169" style="fill:none;fill-rule:nonzero;stroke:white;stroke-width:14.17px;"/>
                    </g>
                    <g transform="matrix(3.51848,-5.21439,-3.51848,-5.21439,987.051,740.163)">
                        <path d="M-5.454,13.167C4.831,2.882 21.504,2.884 31.788,13.167" style="fill:none;fill-rule:nonzero;stroke:white;stroke-width:14.17px;"/>
                    </g>
                    <g transform="matrix(-3.51861,-5.2142,-3.51834,5.21459,987.044,271.336)">
                        <path d="M-31.787,13.166C-21.505,2.883 -4.831,2.883 5.453,13.166" style="fill:none;fill-rule:nonzero;stroke:white;stroke-width:14.17px;"/>
                    </g>
                    <g transform="matrix(3.51848,5.21439,3.51848,-5.21439,856.016,465.532)">
                        <path d="M-5.454,-13.167C4.83,-23.45 21.504,-23.45 31.788,-13.167" style="fill:none;fill-rule:nonzero;stroke:white;stroke-width:14.17px;"/>
                    </g>
                    <g transform="matrix(-3.51861,5.2142,3.51834,5.21459,856.009,545.957)">
                        <path d="M-31.787,-13.166C-21.503,-23.449 -4.829,-23.449 5.453,-13.166" style="fill:none;fill-rule:nonzero;stroke:white;stroke-width:14.17px;"/>
                    </g>
                    <g transform="matrix(3.51848,-5.21439,-3.51848,-5.21439,634.356,741.69)">
                        <path d="M-5.454,13.167C4.831,2.882 21.503,2.882 31.788,13.167" style="fill:none;fill-rule:nonzero;stroke:white;stroke-width:14.17px;"/>
                    </g>
                    <g transform="matrix(3.51848,5.21439,3.51848,-5.21439,503.322,467.059)">
                        <path d="M-5.454,-13.167C4.831,-23.452 21.504,-23.45 31.788,-13.167" style="fill:none;fill-rule:nonzero;stroke:white;stroke-width:14.17px;"/>
                    </g>
                    <g transform="matrix(4.97588,0,0,7.37427,437.805,313.091)">
                        <path d="M0,26.333C0,11.79 11.791,0 26.334,0L31.415,0" style="fill:none;fill-rule:nonzero;stroke:white;stroke-width:14.17px;"/>
                    </g>
                    <g transform="matrix(0,-7.37427,-4.97588,0,831.939,311.557)">
                        <path d="M-26.541,26.541L26.541,26.541" style="fill:none;fill-rule:nonzero;stroke:white;stroke-width:14.17px;"/>
                    </g>
                </g>
                <g transform="matrix(3.51848,-5.21439,-3.51848,-5.21439,674.974,33.5539)">
                    <path d="M2.076,5.011L22.119,5.011L12.097,-5.011L-7.946,-5.011L2.076,5.011Z" style="fill:rgb(237,28,36);fill-rule:nonzero;"/>
                </g>
            </g>
        </g>
    </g>
</svg>
